<svg width="348" height="137" viewBox="0 0 348 137" fill="none" xmlns="http://www.w3.org/2000/svg">
<rect width="347.081" height="136.845" fill="#201D2C"/>
<path d="M17.5873 8.25821H51.2268C56.2727 8.25821 56.2727 27.8826 51.2268 27.8826H27.1745V59.2127H43.9943C49.0402 59.2127 49.0402 79.0092 43.9943 79.0092H27.1745V124.971C27.1745 130.136 8 130.136 8 124.971V17.7261C8 8.25821 8 8.25821 17.5873 8.25821ZM75.279 124.971V11.8732C75.279 6.70892 94.4536 6.70892 94.4536 11.8732V124.971C94.4536 130.136 75.279 130.136 75.279 124.971ZM173.002 32.5304C173.506 34.424 173.17 104.314 172.497 106.896C169.47 120.151 160.387 128.759 146.09 128.759H141.717C127.588 128.759 118.506 120.151 115.31 106.896C114.637 104.314 114.469 34.424 114.805 32.5304C117.16 18.0704 125.907 8.6025 141.717 8.25821H146.09C162.069 8.6025 170.647 18.0704 173.002 32.5304ZM139.194 108.101C142.054 109.651 145.754 109.651 148.613 108.101C153.491 105.691 154.332 99.6664 154.5 95.5349V41.654C154.5 37.5226 153.491 31.4976 148.613 29.0876C145.754 27.5383 142.054 27.5383 139.194 29.0876C134.316 31.4976 133.307 37.5226 133.307 41.654V95.5349C133.475 99.6664 134.316 105.691 139.194 108.101ZM236.581 73.6727V11.8732C236.581 6.70892 255.082 6.70892 255.082 11.8732V121.529C255.082 130.136 238.935 130.308 237.253 126.004L212.024 62.6555V124.971C212.024 130.136 193.354 130.136 193.354 124.971V17.3818C193.354 3.95463 209.333 8.08607 211.856 13.2504L236.581 73.6727ZM321.52 11.8732L339.013 121.184C340.358 129.792 321.352 130.652 320.343 124.455L316.979 103.798H297.3L293.936 124.455C293.095 129.619 273.92 129.792 275.266 121.184L292.927 11.8732C293.768 6.70892 320.848 7.22535 321.52 11.8732ZM313.783 84.3456L307.224 43.2033L300.496 84.3456H313.783Z" fill="white"/>
</svg>
