<svg width="340" height="302" viewBox="0 0 340 302" fill="none" xmlns="http://www.w3.org/2000/svg">
<path d="M330.062 132.03H312.674C307.487 120.242 299.942 109.809 290.63 101.085L301.77 56.5843H282.908C265.579 56.5843 250.254 64.5415 239.881 76.8014C235.401 76.153 230.98 75.4457 226.324 75.4457H150.878C105.257 75.4457 67.2395 107.864 58.4571 150.891H32.9942C24.2708 150.891 17.3746 142.934 19.1429 133.916C20.4396 127.197 26.7464 122.599 33.5836 122.599H34.1731C36.1181 122.599 37.7096 121.008 37.7096 119.063V107.274C37.7096 105.329 36.1181 103.738 34.1731 103.738C17.3746 103.738 2.40333 115.762 0.281422 132.384C-2.31202 152.542 13.3665 169.753 32.9942 169.753H56.571C56.571 200.521 71.5423 227.575 94.2939 244.786V292.352C94.2939 297.539 98.5377 301.783 103.725 301.783H141.447C146.634 301.783 150.878 297.539 150.878 292.352V264.06H226.324V292.352C226.324 297.539 230.568 301.783 235.755 301.783H273.477C278.664 301.783 282.908 297.539 282.908 292.352V244.786C289.863 239.54 296.052 233.351 301.357 226.337H330.062C335.249 226.337 339.492 222.093 339.492 216.906V141.461C339.492 136.274 335.249 132.03 330.062 132.03ZM254.616 169.753C249.429 169.753 245.185 165.509 245.185 160.322C245.185 155.135 249.429 150.891 254.616 150.891C259.803 150.891 264.047 155.135 264.047 160.322C264.047 165.509 259.803 169.753 254.616 169.753ZM150.878 56.5843H226.324C229.507 56.5843 232.631 56.8201 235.696 57.0558C235.696 56.879 235.755 56.7611 235.755 56.5843C235.755 25.345 210.41 0 179.17 0C147.931 0 122.586 25.345 122.586 56.5843C122.586 57.8221 122.881 59.0009 122.94 60.2387C131.899 57.94 141.212 56.5843 150.878 56.5843Z" fill="#FFE98A"/>
</svg>
