<svg width="340" height="320" viewBox="0 0 340 320" fill="none" xmlns="http://www.w3.org/2000/svg">
<path d="M329.377 179.728H181.292L279.913 278.349C283.683 282.119 289.886 282.424 293.761 278.774C317.913 256.02 334.525 225.347 339.399 190.868C340.235 184.964 335.336 179.728 329.377 179.728ZM319.498 139.289C314.355 64.7381 254.782 5.16486 180.231 0.0225663C174.54 -0.370595 169.747 4.42846 169.747 10.1324V149.773H309.394C315.098 149.773 319.891 144.98 319.498 139.289ZM139.792 179.728V31.6439C139.792 25.6841 134.556 20.7852 128.659 21.6215C54.2888 32.1307 -2.5573 97.1021 0.088733 174.967C2.80966 254.934 71.6627 320.511 151.668 319.506C183.121 319.113 212.183 308.978 236.079 292.029C241.009 288.534 241.334 281.276 237.059 277.001L139.792 179.728Z" fill="#FFE98A"/>
</svg>
