<svg width="340" height="302" viewBox="0 0 340 302" fill="none" xmlns="http://www.w3.org/2000/svg">
<path d="M159.758 85.0481L191.744 93.4763C192.831 93.7303 193.803 94.336 194.509 95.1993C195.216 96.0627 195.618 97.1352 195.652 98.2503C195.652 100.961 193.241 103.201 190.277 103.201H169.295C167.034 103.195 164.795 102.754 162.699 101.904C159.611 100.608 156.051 100.903 153.682 103.083L142.484 113.397C141.966 113.851 141.519 114.379 141.157 114.965C140.695 115.724 140.387 116.566 140.252 117.444C140.117 118.322 140.157 119.217 140.369 120.08C140.582 120.942 140.963 121.754 141.491 122.468C142.019 123.183 142.682 123.786 143.444 124.242C149.646 127.964 156.589 130.278 163.784 131.02V141.452C163.784 146.639 168.399 150.882 174.021 150.882H184.259C189.888 150.882 194.503 146.639 194.503 141.452V131.079C213.911 128.957 228.593 112.808 226.035 93.9478C224.178 80.392 212.797 69.6062 198.593 65.8342L166.607 57.406C165.521 57.152 164.549 56.5462 163.842 55.6829C163.135 54.8196 162.734 53.7471 162.699 52.632C162.699 49.9208 165.11 47.6812 168.075 47.6812H189.057C191.326 47.6847 193.573 48.1249 195.675 48.9778C198.758 50.2744 202.324 49.9798 204.693 47.799L215.891 37.4848C216.392 37.0411 216.823 36.5245 217.17 35.9524C217.637 35.1943 217.948 34.3513 218.087 33.4722C218.225 32.593 218.188 31.6951 217.978 30.8303C217.767 29.9655 217.388 29.151 216.861 28.4338C216.333 27.7167 215.67 27.111 214.907 26.6519C208.703 22.9302 201.758 20.6164 194.562 19.874V9.43014C194.562 4.24356 189.953 0 184.324 0H174.086C168.458 0 163.849 4.24356 163.849 9.43014V19.8033C144.464 21.9251 129.753 38.0742 132.311 56.9345C134.161 70.4903 145.578 81.276 159.758 85.0481ZM333.161 193.377C326.206 187.07 315.362 187.483 308.053 193.377L253.594 236.932C246.909 242.295 238.589 245.207 230.019 245.184H160.312C157.811 245.184 155.413 244.19 153.644 242.422C151.876 240.653 150.882 238.255 150.882 235.754C150.882 233.253 151.876 230.854 153.644 229.085C155.413 227.317 157.811 226.323 160.312 226.323H206.455C215.826 226.323 224.555 219.899 226.052 210.646C226.237 209.583 226.328 208.506 226.323 207.428C226.314 202.432 224.323 197.644 220.787 194.114C217.251 190.585 212.459 188.603 207.463 188.603H113.162C97.2578 188.607 81.8387 194.078 69.4884 204.098L42.082 226.323H9.43014C6.92911 226.323 4.53052 227.317 2.76202 229.085C0.99353 230.854 0 233.253 0 235.754L0 292.334C0 294.835 0.99353 297.234 2.76202 299.003C4.53052 300.771 6.92911 301.765 9.43014 301.765H219.705C228.272 301.771 236.587 298.861 243.28 293.513L332.413 222.198C334.557 220.483 336.3 218.32 337.522 215.862C338.744 213.403 339.414 210.707 339.486 207.963C339.558 205.218 339.03 202.491 337.938 199.971C336.847 197.452 335.218 195.202 333.167 193.377H333.161Z" fill="#FFE98A"/>
</svg>
