<svg width="340" height="255" viewBox="0 0 340 255" fill="none" xmlns="http://www.w3.org/2000/svg">
<path d="M328.883 212.183H42.4366V10.6091C42.4366 4.74759 37.689 0 31.8274 0H10.6091C4.74759 0 0 4.74759 0 10.6091V233.401C0 245.118 9.50181 254.619 21.2183 254.619H328.883C334.745 254.619 339.492 249.872 339.492 244.01V222.792C339.492 216.93 334.745 212.183 328.883 212.183ZM307.665 21.2183H229.383C215.206 21.2183 208.105 38.3587 218.131 48.3843L239.614 69.8678L190.965 118.524L142.315 69.8744C134.027 61.5861 120.593 61.5861 112.311 69.8744L66.7646 115.421C62.6204 119.565 62.6204 126.282 66.7646 130.426L81.7633 145.425C85.9075 149.569 92.6244 149.569 96.7686 145.425L127.31 114.877L175.959 163.527C184.248 171.815 197.681 171.815 205.963 163.527L269.618 99.8718L291.102 121.355C301.127 131.381 318.268 124.279 318.268 110.103V31.8274C318.274 25.9659 313.527 21.2183 307.665 21.2183Z" fill="#FFE98A"/>
</svg>
