<svg width="352" height="110" viewBox="0 0 352 110" fill="none" xmlns="http://www.w3.org/2000/svg">
<rect width="352" height="110" fill="#201D2C"/>
<path d="M21.776 99C19.9973 99 18.4507 98.3427 17.136 97.028C15.8213 95.7133 15.164 94.1667 15.164 92.388V20.932C15.164 19.1533 15.8213 17.6067 17.136 16.292C18.4507 14.9773 19.9973 14.32 21.776 14.32H61.216C62.9947 14.32 64.5413 14.9773 65.856 16.292C67.1707 17.6067 67.828 19.1533 67.828 20.932C67.828 22.7107 67.1707 24.2573 65.856 25.572C64.5413 26.8093 62.9947 27.428 61.216 27.428H32.448C31.752 27.428 31.404 27.776 31.404 28.472V47.148C31.404 47.844 31.752 48.192 32.448 48.192H59.244C61.0227 48.192 62.492 48.8107 63.652 50.048C64.8893 51.2853 65.508 52.7547 65.508 54.456C65.508 56.1573 64.8893 57.6267 63.652 58.864C62.492 60.024 61.0227 60.604 59.244 60.604H32.448C31.752 60.604 31.404 60.952 31.404 61.648V84.848C31.404 85.544 31.752 85.892 32.448 85.892H61.216C62.9947 85.892 64.5413 86.5493 65.856 87.864C67.1707 89.1013 67.828 90.6093 67.828 92.388C67.828 94.1667 67.1707 95.7133 65.856 97.028C64.5413 98.3427 62.9947 99 61.216 99H21.776ZM91.5573 99C89.7786 99 88.2319 98.3427 86.9173 97.028C85.6026 95.7133 84.9453 94.1667 84.9453 92.388V20.932C84.9453 19.1533 85.6026 17.6067 86.9173 16.292C88.2319 14.9773 89.7786 14.32 91.5573 14.32H94.4573C96.4679 14.32 98.3239 14.8613 100.025 15.944C101.727 17.0267 102.964 18.4573 103.737 20.236L124.037 64.084C124.037 64.1613 124.076 64.2 124.153 64.2C124.231 64.2 124.269 64.1613 124.269 64.084L144.569 20.236C145.343 18.4573 146.58 17.0267 148.281 15.944C149.983 14.8613 151.839 14.32 153.849 14.32H157.213C158.992 14.32 160.539 14.9773 161.853 16.292C163.168 17.6067 163.825 19.1533 163.825 20.932V92.388C163.825 94.1667 163.168 95.7133 161.853 97.028C160.539 98.3427 158.992 99 157.213 99H154.661C152.883 99 151.336 98.3427 150.021 97.028C148.707 95.7133 148.049 94.1667 148.049 92.388V41.928C148.049 41.8507 148.011 41.812 147.933 41.812C147.856 41.812 147.817 41.8507 147.817 41.928L133.897 71.74C133.047 73.5187 131.732 74.988 129.953 76.148C128.252 77.2307 126.435 77.772 124.501 77.772H123.805C121.872 77.772 120.016 77.2307 118.237 76.148C116.536 74.988 115.26 73.5187 114.409 71.74L100.489 41.928C100.489 41.8507 100.451 41.812 100.373 41.812C100.296 41.812 100.257 41.8507 100.257 41.928V92.388C100.257 94.1667 99.5999 95.7133 98.2853 97.028C96.9706 98.3427 95.4239 99 93.6453 99H91.5573ZM188.753 99C186.974 99 185.427 98.3427 184.113 97.028C182.798 95.7133 182.141 94.1667 182.141 92.388V20.932C182.141 19.1533 182.798 17.6067 184.113 16.292C185.427 14.9773 186.974 14.32 188.753 14.32H191.653C193.663 14.32 195.519 14.8613 197.221 15.944C198.922 17.0267 200.159 18.4573 200.933 20.236L221.233 64.084C221.233 64.1613 221.271 64.2 221.349 64.2C221.426 64.2 221.465 64.1613 221.465 64.084L241.765 20.236C242.538 18.4573 243.775 17.0267 245.477 15.944C247.178 14.8613 249.034 14.32 251.045 14.32H254.409C256.187 14.32 257.734 14.9773 259.049 16.292C260.363 17.6067 261.021 19.1533 261.021 20.932V92.388C261.021 94.1667 260.363 95.7133 259.049 97.028C257.734 98.3427 256.187 99 254.409 99H251.857C250.078 99 248.531 98.3427 247.217 97.028C245.902 95.7133 245.245 94.1667 245.245 92.388V41.928C245.245 41.8507 245.206 41.812 245.129 41.812C245.051 41.812 245.013 41.8507 245.013 41.928L231.093 71.74C230.242 73.5187 228.927 74.988 227.149 76.148C225.447 77.2307 223.63 77.772 221.697 77.772H221.001C219.067 77.772 217.211 77.2307 215.433 76.148C213.731 74.988 212.455 73.5187 211.605 71.74L197.685 41.928C197.685 41.8507 197.646 41.812 197.569 41.812C197.491 41.812 197.453 41.8507 197.453 41.928V92.388C197.453 94.1667 196.795 95.7133 195.481 97.028C194.166 98.3427 192.619 99 190.841 99H188.753ZM308.452 28.704L298.244 65.128C298.167 65.36 298.205 65.592 298.36 65.824C298.515 66.056 298.708 66.172 298.94 66.172H318.196C318.428 66.172 318.621 66.056 318.776 65.824C318.931 65.592 318.969 65.36 318.892 65.128L308.684 28.704C308.684 28.6267 308.645 28.588 308.568 28.588C308.491 28.588 308.452 28.6267 308.452 28.704ZM278.408 99C276.784 99 275.508 98.3427 274.58 97.028C273.652 95.7133 273.459 94.2827 274 92.736L298.012 20.584C298.708 18.728 299.829 17.22 301.376 16.06C303 14.9 304.779 14.32 306.712 14.32H310.888C312.899 14.32 314.677 14.9 316.224 16.06C317.848 17.22 318.969 18.728 319.588 20.584L343.6 92.736C344.141 94.2827 343.948 95.7133 343.02 97.028C342.092 98.3427 340.816 99 339.192 99H335.016C333.16 99 331.42 98.42 329.796 97.26C328.249 96.0227 327.205 94.476 326.664 92.62L322.952 79.512C322.875 78.8933 322.449 78.584 321.676 78.584H295.46C294.764 78.584 294.339 78.8933 294.184 79.512L290.472 92.62C290.008 94.476 288.964 96.0227 287.34 97.26C285.793 98.42 284.053 99 282.12 99H278.408Z" fill="white"/>
</svg>
