<svg width="352" height="110" viewBox="0 0 352 110" fill="none" xmlns="http://www.w3.org/2000/svg">
<g clip-path="url(#clip0_301_5)">
<rect width="352" height="110" fill="#201D2C"/>
<path d="M15.66 99C13.8813 99 12.3347 98.3427 11.02 97.028C9.78267 95.7133 9.164 94.1667 9.164 92.388V20.932C9.164 19.1533 9.78267 17.6067 11.02 16.292C12.3347 14.9773 13.8813 14.32 15.66 14.32H53.94C55.7187 14.32 57.2653 14.9773 58.58 16.292C59.8947 17.6067 60.552 19.1533 60.552 20.932C60.552 22.7107 59.8947 24.2573 58.58 25.572C57.2653 26.8093 55.7187 27.428 53.94 27.428H26.332C25.7133 27.428 25.404 27.776 25.404 28.472V48.772C25.404 49.3907 25.7133 49.7 26.332 49.7H51.968C53.6693 49.7 55.1387 50.3187 56.376 51.556C57.6133 52.716 58.232 54.1853 58.232 55.964C58.232 57.7427 57.6133 59.2507 56.376 60.488C55.1387 61.648 53.6693 62.228 51.968 62.228H26.332C25.7133 62.228 25.404 62.5373 25.404 63.156V92.388C25.404 94.1667 24.7467 95.7133 23.432 97.028C22.1173 98.3427 20.5707 99 18.792 99H15.66ZM86.0648 99C84.2861 99 82.7394 98.3427 81.4248 97.028C80.1101 95.7133 79.4528 94.1667 79.4528 92.388V20.932C79.4528 19.1533 80.1101 17.6067 81.4248 16.292C82.7394 14.9773 84.2861 14.32 86.0648 14.32H90.7048C92.4834 14.32 94.0301 14.9773 95.3448 16.292C96.6594 17.6067 97.3168 19.1533 97.3168 20.932V92.388C97.3168 94.1667 96.6594 95.7133 95.3448 97.028C94.0301 98.3427 92.4834 99 90.7048 99H86.0648ZM173.362 56.66C173.362 36.5533 166.015 26.5 151.322 26.5C136.629 26.5 129.282 36.5533 129.282 56.66C129.282 76.7667 136.629 86.82 151.322 86.82C166.015 86.82 173.362 76.7667 173.362 56.66ZM179.51 88.676C172.627 96.332 163.231 100.16 151.322 100.16C139.413 100.16 129.978 96.332 123.018 88.676C116.135 81.02 112.694 70.348 112.694 56.66C112.694 42.972 116.135 32.3 123.018 24.644C129.978 16.988 139.413 13.16 151.322 13.16C163.231 13.16 172.627 16.988 179.51 24.644C186.47 32.3 189.95 42.972 189.95 56.66C189.95 70.348 186.47 81.02 179.51 88.676ZM209.598 99C207.819 99 206.272 98.3427 204.958 97.028C203.72 95.7133 203.102 94.1667 203.102 92.388V20.932C203.102 19.1533 203.72 17.6067 204.958 16.292C206.272 14.9773 207.819 14.32 209.598 14.32H212.15C216.558 14.32 219.806 16.2533 221.894 20.12L250.546 71.856C250.546 71.9333 250.584 71.972 250.662 71.972C250.739 71.972 250.778 71.9333 250.778 71.856V20.932C250.778 19.1533 251.435 17.6067 252.75 16.292C254.064 14.9773 255.611 14.32 257.39 14.32H259.942C261.72 14.32 263.228 14.9773 264.466 16.292C265.78 17.6067 266.438 19.1533 266.438 20.932V92.388C266.438 94.1667 265.78 95.7133 264.466 97.028C263.228 98.3427 261.72 99 259.942 99H257.39C252.982 99 249.734 97.0667 247.646 93.2L218.994 41.464C218.994 41.3867 218.955 41.348 218.878 41.348C218.8 41.348 218.762 41.3867 218.762 41.464V92.388C218.762 94.1667 218.104 95.7133 216.79 97.028C215.475 98.3427 213.928 99 212.15 99H209.598ZM313.893 28.704L303.685 65.128C303.608 65.36 303.647 65.592 303.801 65.824C303.956 66.056 304.149 66.172 304.381 66.172H323.637C323.869 66.172 324.063 66.056 324.217 65.824C324.372 65.592 324.411 65.36 324.333 65.128L314.125 28.704C314.125 28.6267 314.087 28.588 314.009 28.588C313.932 28.588 313.893 28.6267 313.893 28.704ZM283.849 99C282.225 99 280.949 98.3427 280.021 97.028C279.093 95.7133 278.9 94.2827 279.441 92.736L303.453 20.584C304.149 18.728 305.271 17.22 306.817 16.06C308.441 14.9 310.22 14.32 312.153 14.32H316.329C318.34 14.32 320.119 14.9 321.665 16.06C323.289 17.22 324.411 18.728 325.029 20.584L349.041 92.736C349.583 94.2827 349.389 95.7133 348.461 97.028C347.533 98.3427 346.257 99 344.633 99H340.457C338.601 99 336.861 98.42 335.237 97.26C333.691 96.0227 332.647 94.476 332.105 92.62L328.393 79.512C328.316 78.8933 327.891 78.584 327.117 78.584H300.901C300.205 78.584 299.78 78.8933 299.625 79.512L295.913 92.62C295.449 94.476 294.405 96.0227 292.781 97.26C291.235 98.42 289.495 99 287.561 99H283.849Z" fill="white"/>
</g>
<defs>
<clipPath id="clip0_301_5">
<rect width="352" height="110" fill="white"/>
</clipPath>
</defs>
</svg>
